<?xml version="1.0"?>
<svg xmlns="http://www.w3.org/2000/svg" id="Calque_1" viewBox="0 0 1280 800">
  <defs>
    <style>.cls-1{fill:#ccc;}.cls-2{fill:#f2f2f2;}.cls-3{fill:#cb9d62;}.cls-4{fill:#95bca7;}.cls-5,.cls-7{fill:none;}.cls-5,.cls-6,.cls-7{stroke:#3d3437;stroke-width:5.23px;}.cls-5,.cls-6{stroke-miterlimit:10;}.cls-6{fill:#fff;}.cls-7{stroke-linecap:round;stroke-linejoin:round;}.cls-8{fill:#3d3437;}</style>
  </defs>
  <title>1280_800_generic</title>
  <rect class="cls-1" width="1280" height="800"/>
  <circle id="label" class="cls-2" cx="613.49" cy="388.52" r="130.66"/>
  <g id="jpg-image">
    <path class="cls-3" d="M637,315.35H561.13c-2.11,0-3.82,1.71-3.82,5V459.07c0,0.9,1.71,2.61,3.82,2.61H665.85c2.11,0,3.82-1.71,3.82-2.61V349.26c0-1.82-.24-2.41-0.67-2.84L638.6,316A2.31,2.31,0,0,0,637,315.35Z"/>
    <path class="cls-4" d="M559.92,415.3c10.45-7.84,40.5-33.32,40.5-33.32l30.05,34.63Z"/>
    <polyline class="cls-4" points="643.54 364.34 616.1 394.4 633.09 416.61 669.67 416.61 669.67 395.7"/>
    <path class="cls-5" d="M637,315.35H561.13c-2.11,0-3.82,1.71-3.82,5V459.07c0,0.9,1.71,2.61,3.82,2.61H665.85c2.11,0,3.82-1.71,3.82-2.61V349.26c0-1.82-.24-2.41-0.67-2.84L638.6,316A2.31,2.31,0,0,0,637,315.35Z"/>
    <path class="cls-6" d="M665.85,461.69H561.13a3.82,3.82,0,0,1-3.82-3.82v-40.6H669.68v40.6A3.82,3.82,0,0,1,665.85,461.69Z"/>
    <polyline class="cls-7" points="616.1 393.74 643.54 363.69 669.67 396.36"/>
    <polyline class="cls-7" points="562.53 414 601.78 379.41 630.43 415.91 601.78 379.41 557.31 417.26"/>
    <path class="cls-6" d="M638.32,319v27.72H666a1.34,1.34,0,0,0,.95-2.29L640.61,318A1.34,1.34,0,0,0,638.32,319Z"/>
    <circle class="cls-6" cx="580.83" cy="359.95" r="11.94"/>
    <path class="cls-8" d="M597.43,444.9c0,4.42-2.6,6.93-6.83,6.93a8.12,8.12,0,0,1-6.46-3.16l1.76-2.82a6.71,6.71,0,0,0,4.67,2.41c2,0,3.13-1.22,3.13-3.48V433.05h-7.58v-3.32h11.32V444.9Z"/>
    <path class="cls-8" d="M611.8,429.73c5.52,0,8.68,2.73,8.68,7.49,0,5-3.16,7.83-8.68,7.83h-5v6.61h-3.7V429.73h8.74Zm-5,12h4.89c3.38,0,5.29-1.44,5.29-4.42s-1.91-4.26-5.29-4.26h-4.89v8.68Z"/>
    <path class="cls-8" d="M642.71,440.89V449a14.86,14.86,0,0,1-8.52,2.85,11.19,11.19,0,0,1-11.53-11.13c0-6.27,5.11-11.06,11.75-11.06a13.19,13.19,0,0,1,8.43,3.07l-2.1,2.73a9.52,9.52,0,0,0-6.33-2.51,7.79,7.79,0,1,0,0,15.58,10.22,10.22,0,0,0,5-1.51v-6.11h3.23Z"/>
  </g>
</svg>
