<?xml version="1.0"?>
<svg xmlns="http://www.w3.org/2000/svg" id="Calque_1" viewBox="0 0 300 244.54">
  <defs>
    <style>.cls-1{fill:#58595b;}.cls-2{fill:#231f20;}</style>
  </defs>
  <title>LP_logo copie</title>
  <path class="cls-1" d="M52.06,218.86c-10,0-19.62-6-26-37.25-5.18,6.7-10.81,13.15-16.38,16.65a3.34,3.34,0,1,1-3.56-5.66c6.38-4,13.85-13.89,18.32-19.94-3.22-20-5.35-48.44-5.88-88.57,0-2.54-.09-5.09-0.14-7.65C18,58.49,17.64,39.93,24.28,23.16,30.47,7.49,40.95,5.77,48.64,7.08c4,0.68,7.49,3.21,10.45,7.52,9.79,14.26,12.8,48.53,6.87,78-7,34.81-26,69.68-34.5,81.75,6.42,37.79,16,37.79,20.6,37.79,13.85,0,19.77-13.71,23-24,0.3-1,.54-1.69.72-2.12A3.34,3.34,0,0,1,82,188.56c-0.13.32-.3,0.88-0.53,1.6C79.22,197.27,72.41,218.86,52.06,218.86ZM44.47,13.39c-4.55,0-10,2.14-14,12.23C24.36,41.14,24.74,59,25.11,76.29c0.06,2.58.11,5.15,0.14,7.71,0.48,35.88,2.25,61.73,4.71,80.33,8.26-13.65,23.28-42.36,29.45-73,5.53-27.47,2.91-60.18-5.83-72.92-1.9-2.76-3.94-4.35-6.07-4.71A18,18,0,0,0,44.47,13.39Z"/>
  <path class="cls-1" d="M209.61,218.77a20.25,20.25,0,0,1-12-3.56,11.52,11.52,0,0,1-4.76-8.56,12.68,12.68,0,0,1,2.87-9,7.23,7.23,0,0,1,5.4-2.39,3.34,3.34,0,1,1,0,6.69,0.59,0.59,0,0,0-.51.26,6.17,6.17,0,0,0-1.1,4,4.88,4.88,0,0,0,2.11,3.7c2.88,2.17,7.87,2.6,11.09,1.92,10.71-2.28,15.3-8.5,14-19s-4.8-19.09-10.87-26.23c-3.93-4.63-11.65-11.86-17.16-15.36q-0.28,1.65-.55,3.31c-3.44,20.67-7.34,44.1-27.92,55.42a3.34,3.34,0,0,1-3.22-5.86c17.74-9.76,21.2-30.55,24.55-50.66,0.44-2.62.87-5.22,1.33-7.79a3.34,3.34,0,0,1,4.31-2.59c7.16,2.29,19.2,13.83,23.76,19.2,6.94,8.18,11,17.91,12.41,29.77,1.67,14-5.18,23.31-19.29,26.32A22,22,0,0,1,209.61,218.77Z"/>
  <path class="cls-1" d="M263.25,219.24c-11.12,0-27.48-5.8-31.5-23.11-2.83-12.18-1-24.13,5.05-33.65A33.3,33.3,0,0,1,258,147.4c9-1.88,20.16,3.46,25.46,12.14,4.15,6.79,3.69,14.18-1.25,20.29-6,7.45-17,11.72-27.92,10.87a28.32,28.32,0,0,1-17.15-7,42.31,42.31,0,0,0,1.11,10.91c3.78,16.29,22,19.12,29,17.55,10.24-2.3,16.36-8,18.19-17.06a3.34,3.34,0,1,1,6.56,1.33c-2.33,11.5-10.6,19.41-23.28,22.26A25.36,25.36,0,0,1,263.25,219.24Zm-24.73-44.41,0.07,0.11c3,5.22,8.95,8.53,16.24,9.1,8.65,0.66,17.59-2.71,22.2-8.41,4-4.91,2.59-9.56.74-12.6-3.79-6.21-12.22-10.37-18.39-9.08a26.67,26.67,0,0,0-16.93,12.12A33.06,33.06,0,0,0,238.51,174.83Z"/>
  <path class="cls-1" d="M101.59,219.24h0a20.72,20.72,0,0,1-17.07-8.69C77.2,200,74.15,185.43,76.16,170.45c1-7.66,4.15-31,25.16-31,12.62,0,21.19,5,25,30.05,2,13.06-.6,32.35-8.3,42A20.75,20.75,0,0,1,101.59,219.24Zm-0.27-73.06c-10.49,0-16.2,7.76-18.53,25.15-1.79,13.34.84,26.24,7.22,35.39a13.85,13.85,0,0,0,11.58,5.83h0a14.11,14.11,0,0,0,11.16-5.17c6.47-8.12,8.63-25.45,6.91-36.84C116,146.18,108.54,146.18,101.32,146.18Z"/>
  <path class="cls-1" d="M152.72,219.24h0a20.71,20.71,0,0,1-17.07-8.69c-7.32-10.51-10.37-25.12-8.37-40.11,1-7.66,4.15-31,25.16-31,12.62,0,21.19,5,25,30.05,2,13.07-.6,32.35-8.3,42A20.75,20.75,0,0,1,152.72,219.24Zm-0.27-73.06c-10.48,0-16.2,7.76-18.53,25.16-1.79,13.34.84,26.24,7.22,35.39a13.84,13.84,0,0,0,11.58,5.83h0a14.11,14.11,0,0,0,11.16-5.17c6.47-8.12,8.63-25.45,6.91-36.84C167.13,146.18,159.66,146.18,152.45,146.18Z"/>
  <path class="cls-2" d="M45.3,226.35h1.58a9.16,9.16,0,0,1,1.84.12,2,2,0,0,1,1.11.69,2,2,0,0,1,.43,1.31,2,2,0,0,1-.42,1.31,2.08,2.08,0,0,1-1.16.69,10.27,10.27,0,0,1-2,.13H46.09v3.7H45.3v-8Zm0.8,0.78v2.7l1.35,0a3.54,3.54,0,0,0,1.2-.15,1.23,1.23,0,0,0,.6-0.48,1.34,1.34,0,0,0,.22-0.74,1.32,1.32,0,0,0-.22-0.73,1.19,1.19,0,0,0-.57-0.47,3.42,3.42,0,0,0-1.16-.14H46.09Z"/>
  <path class="cls-2" d="M79.59,226.35h1.58a9.58,9.58,0,0,1,1.8.11,2,2,0,0,1,1.15.7,2,2,0,0,1,.44,1.31,2.13,2.13,0,0,1-.31,1.14,1.91,1.91,0,0,1-.87.74,4,4,0,0,1-1.57.26l2.86,3.69h-1l-2.86-3.69H80.39v3.69h-0.8v-8Zm0.8,0.78v2.7h1.37a3.41,3.41,0,0,0,1.18-.15,1.22,1.22,0,0,0,.6-0.48,1.35,1.35,0,0,0,.21-0.74,1.29,1.29,0,0,0-.22-0.73,1.21,1.21,0,0,0-.57-0.47,3.45,3.45,0,0,0-1.17-.14h-1.4Z"/>
  <path class="cls-2" d="M117.75,226.15a4.13,4.13,0,0,1,3,1.21,4.18,4.18,0,0,1-3,7.15,4.07,4.07,0,0,1-3-1.21,4,4,0,0,1-1.22-2.93,4.24,4.24,0,0,1,.55-2.13A4.09,4.09,0,0,1,117.75,226.15Zm0,0.77a3.4,3.4,0,0,0-2.91,1.7,3.45,3.45,0,0,0-.44,1.74,3.35,3.35,0,0,0,3.35,3.37,3.4,3.4,0,0,0,1.71-.45,3.22,3.22,0,0,0,1.23-1.23,3.45,3.45,0,0,0,.44-1.73,3.37,3.37,0,0,0-.44-1.71,3.3,3.3,0,0,0-1.24-1.23A3.38,3.38,0,0,0,117.79,226.93Z"/>
  <path class="cls-2" d="M153.89,226.35h0.8v5.37a5.28,5.28,0,0,1-.19,1.72,1.61,1.61,0,0,1-.64.77,2,2,0,0,1-1.09.29,2.52,2.52,0,0,1-.95-0.19,4,4,0,0,1-1-.66l0.42-.63a6.22,6.22,0,0,0,1,.62,1.33,1.33,0,0,0,.53.12,1,1,0,0,0,.62-0.21,1.07,1.07,0,0,0,.39-0.55,5,5,0,0,0,.11-1.32v-5.34Z"/>
  <path class="cls-2" d="M184.31,226.35h4.56v0.78h-3.76v2.49h3.73v0.78h-3.73v3.13h3.73v0.78h-4.53v-8Z"/>
  <path class="cls-2" d="M225.35,227.83l-0.63.48a3.41,3.41,0,0,0-1.25-1,3.64,3.64,0,0,0-1.6-.35,3.53,3.53,0,0,0-1.76.46,3.28,3.28,0,0,0-1.26,1.23,3.4,3.4,0,0,0-.45,1.73,3.25,3.25,0,0,0,1,2.43,3.46,3.46,0,0,0,2.52,1,3.54,3.54,0,0,0,2.8-1.31l0.63,0.48a4,4,0,0,1-1.48,1.17,4.65,4.65,0,0,1-2,.41,4.13,4.13,0,0,1-3.29-1.39,4.2,4.2,0,0,1-1-2.83,3.94,3.94,0,0,1,1.23-2.94,4.23,4.23,0,0,1,3.07-1.19,4.5,4.5,0,0,1,2,.44A3.9,3.9,0,0,1,225.35,227.83Z"/>
  <path class="cls-2" d="M253.85,227.13v-0.78h4.36v0.78h-1.77v7.18h-0.81v-7.18h-1.77Z"/>
</svg>
